<svg xmlns="http://www.w3.org/2000/svg" x="0px" y="0px" width="100" height="100" viewBox="0,0,256,256">
<g fill="#ffffff" fill-rule="nonzero" stroke="none" stroke-width="1" stroke-linecap="butt" stroke-linejoin="miter" stroke-miterlimit="10" stroke-dasharray="" stroke-dashoffset="0" font-family="none" font-weight="none" font-size="none" text-anchor="none" style="mix-blend-mode: normal"><g transform="scale(5.12,5.12)"><path d="M5,7c-2.75,0 -5,2.25 -5,5v26c0,2.75 2.25,5 5,5h40c2.75,0 5,-2.25 5,-5v-26c0,-2.75 -2.25,-5 -5,-5zM5,9h40c1.66797,0 3,1.33203 3,3v26c0,1.66797 -1.33203,3 -3,3h-40c-1.66797,0 -3,-1.33203 -3,-3v-26c0,-1.66797 1.33203,-3 3,-3zM29.6875,19.40625c-3.10156,0 -4.6875,1.52734 -4.6875,3.46875c0,3.51172 4.0625,3.03906 4.0625,4.84375c0,0.30469 -0.23437,1.03125 -1.9375,1.03125c-1.70703,0 -2.8125,-0.65625 -2.8125,-0.65625l-0.53125,2.375c0,0 1.10547,0.625 3.21875,0.625c2.11328,0 5.03125,-1.61719 5.03125,-3.96875c0,-2.82812 -4.0625,-3.05078 -4.0625,-4.3125c0,-0.64453 0.5,-1.125 1.96875,-1.125c0.95313,0 2.03125,0.71875 2.03125,0.71875l0.5,-2.4375c0,0 -1.41797,-0.5625 -2.78125,-0.5625zM16.46875,19.625l-2.6875,7.9375c0,0 -0.18359,-0.67578 -0.25,-1.09375c-1.53516,-3.44531 -4.03125,-4.71875 -4.03125,-4.71875l2.375,9h3.25l4.5,-11.125zM20.78125,19.625l-1.75,11.125h2.96875l1.78125,-11.125zM36.8125,19.625l-4.84375,11.125h2.9375l0.59375,-1.59375h3.6875l0.3125,1.59375h2.6875l-2.28125,-11.125zM6.25,19.65625c0,0 5.80469,1.79688 7.15625,6.15625l-1,-5.0625c0,0 -0.42969,-1.09375 -1.59375,-1.09375zM37.9375,22.84375l0.8125,4.1875h-2.4375z"></path></g></g>
</svg>